<?xml version="1.0" encoding="UTF-8" standalone="no"?>
<svg
   xmlns:dc="http://purl.org/dc/elements/1.1/"
   xmlns:cc="http://creativecommons.org/ns#"
   xmlns:rdf="http://www.w3.org/1999/02/22-rdf-syntax-ns#"
   xmlns:svg="http://www.w3.org/2000/svg"
   xmlns="http://www.w3.org/2000/svg"
   xmlns:sodipodi="http://sodipodi.sourceforge.net/DTD/sodipodi-0.dtd"
   xmlns:inkscape="http://www.inkscape.org/namespaces/inkscape"
   version="1.1"
   id="svg2"
   xml:space="preserve"
   width="2666.6667"
   height="2666.6667"
   viewBox="0 0 2666.6667 2666.6667"
   sodipodi:docname="Confused business character making important decision.eps"><metadata
     id="metadata8"><rdf:RDF><cc:Work
         rdf:about=""><dc:format>image/svg+xml</dc:format><dc:type
           rdf:resource="http://purl.org/dc/dcmitype/StillImage" /></cc:Work></rdf:RDF></metadata><defs
     id="defs6" /><sodipodi:namedview
     pagecolor="#ffffff"
     bordercolor="#666666"
     borderopacity="1"
     objecttolerance="10"
     gridtolerance="10"
     guidetolerance="10"
     inkscape:pageopacity="0"
     inkscape:pageshadow="2"
     inkscape:window-width="640"
     inkscape:window-height="480"
     id="namedview4" /><g
     id="g10"
     inkscape:groupmode="layer"
     inkscape:label="ink_ext_XXXXXX"
     transform="matrix(1.3333333,0,0,-1.3333333,0,2666.6667)"><g
       id="g12"
       transform="scale(0.1)"><path
         d="M 20000,0 H 0 V 20000 H 20000 V 0"
         style="fill:transparent;fill-opacity:1;fill-rule:nonzero;stroke:none"
         id="path14" /><path
         d="m 4293.02,3453 c 0,0 -2076.85,6972.9 -582.28,8525.6 998.98,1037.8 2057.85,-1250 3321.68,-39.7 1125.17,1077.5 -443.52,3791.9 1433.86,4502 1973.32,746.4 3589.92,-5298 5245.62,-4462.3 2009.2,1014.1 4007.7,-1044.6 2280.6,-8539 L 4293.02,3453"
         style="fill:#d4e8ff;fill-opacity:1;fill-rule:nonzero;stroke:none"
         id="path16" /><path
         d="m 9553.91,18409.2 c -99.33,69.4 -202.81,116.9 -307.55,141.1 l 14.96,109 c 113.67,-26.3 225.73,-77.7 333.06,-152.7 z m -931.64,-0.1 -45.97,93.2 c 101.02,83.9 212.31,138.4 330.8,162.1 l 12.98,-109.4 c -106.66,-21.3 -206.86,-70.4 -297.81,-145.9 z m 1429.23,-569.5 c -74.47,121.2 -151.38,228.5 -228.54,319 l 57.2,82.1 c 80.57,-94.5 160.64,-206.3 238.04,-332.1 z m -1842.21,-84.6 -76.46,49 c 55.99,147.2 118.08,277.3 184.55,386.8 l 66.99,-68.4 c -62.8,-103.5 -121.71,-227.1 -175.08,-367.4 z m 2208.01,-656.6 c -56.1,137 -113.4,265.7 -170.3,382.4 l 72,59.1 c 58.1,-119 116.5,-250.1 173.6,-389.6 z m -2431.48,-172.3 -82.73,26.9 c 29.74,154.4 62.53,300 97.45,432.5 l 80.69,-35.8 c -34.15,-129.6 -66.25,-272.1 -95.41,-423.6 z M 10706,16294.7 c -45.8,143 -92,279.8 -137.3,406.6 l 77.4,46.5 c 45.7,-128.1 92.4,-266.3 138.6,-410.6 z m -2848.35,-239.6 -84.39,15.8 c 17.24,154.9 36.2,303.9 56.35,442.8 l 83.8,-20.5 c -19.92,-137.3 -38.68,-284.8 -55.76,-438.1 z m 3093.75,-590.5 c -41.2,149.2 -80.1,285.6 -118.7,417 l 79.6,39.5 c 38.9,-132.1 77.9,-269.2 119.4,-419.2 z m -3171.32,-293.7 -84.94,9.8 c 10.62,155.3 22.18,305.2 34.36,445.6 l 84.74,-12.4 c -12.1,-139.5 -23.6,-288.6 -34.16,-443 z m 7639.12,-186.6 c -105.6,57.8 -212.5,93.6 -317.7,106.3 l 7.9,110.2 c 113.9,-13.8 229.3,-52.4 343,-114.5 z m -930.4,-135.5 -48.9,90.6 c 104.9,95.2 210.8,165.7 314.9,209.6 l 26.3,-105.3 c -96,-40.4 -194.3,-106 -292.3,-194.9 z m -3313.9,-227.4 c -42.5,164.7 -77.4,298.9 -110.1,422.4 l 80.7,35.9 c 32.7,-123.8 67.7,-258.3 110.2,-423.2 z m 4785.2,-137.8 c -82.1,109.2 -167.1,205.5 -252.7,286.3 l 50.3,89.5 c 89.3,-84.5 178,-184.9 263.4,-298.5 z M 4315.17,14304.8 c -106.41,68.7 -211.07,112.6 -311.08,130.3 l 11.57,109.6 c 109.22,-19.4 222.77,-66.8 337.5,-140.8 z m 3415.28,-23.2 -85.12,6.6 c 7.38,160.8 14.71,306.9 22.41,446.5 l 85.06,-7.9 c -7.68,-139.2 -14.99,-284.8 -22.35,-445.2 z m 6277.45,-43.5 -66.3,69.7 c 80,128 155.8,238.2 231.7,336.8 l 60.3,-78.2 c -73.8,-95.9 -147.7,-203.2 -225.7,-328.3 z m -10612.54,-33.8 -51.72,88 c 101.83,100.8 207.82,173.4 315.01,216 l 24.95,-105.8 c -97.49,-38.7 -194.47,-105.4 -288.24,-198.2 z m 12974.54,-417.1 c -61.1,129.4 -125.2,251.7 -190.4,363.7 l 68,66.7 c 66.9,-114.8 132.5,-240.2 195.1,-372.6 z m -11518.1,-4.7 c -87.15,110.1 -172.85,207.3 -254.71,289.1 l 52.01,87.6 c 84.46,-84.3 172.68,-184.4 262.19,-297.4 z m 6541.7,-7.8 c -39.1,148.7 -77.5,297.5 -109.9,423.4 l 80.9,35 c 32.3,-125.7 70.7,-274.3 109.7,-422.6 z m -8435.94,-225 -71.88,59.5 c 67.01,136.2 136.11,259.1 205.36,365.5 l 65.14,-71.4 c -66.82,-102.6 -133.64,-221.6 -198.62,-353.6 z m 10651.54,-31.3 -71.2,61 c 71.3,139.9 135,260.9 194.8,369.9 l 69.5,-64.2 c -59.3,-107.9 -122.5,-227.9 -193.1,-366.7 z m -5915.29,-128.2 -85.16,5.6 c 5.74,147.8 11.45,295.6 17.53,446.1 l 85.16,-5.8 c -6.08,-150.4 -11.79,-298.2 -17.53,-445.9 z m -2387.36,-267.1 c -77.38,124.6 -149.4,235.5 -220.19,339 l 63.8,73.4 c 71.69,-104.8 144.56,-217.1 222.8,-343 z m 11373.15,-120.8 c -45.9,138.6 -94.4,273.1 -144.2,400 l 76,50.2 c 50.7,-129 100,-265.8 146.5,-406.5 z m -5050.3,-69 c -38.6,125.7 -78.5,262.8 -122,419.3 l 80.2,37.5 c 43.2,-155.3 82.8,-291.3 121.1,-415.8 z m 1605.8,-163.6 -71.3,60.8 c 60.6,119.5 123.2,246.2 186.6,374.1 l 71.7,-59.8 c -63.5,-128.3 -126.2,-255 -187,-375.1 z m -10593.96,0 -78.01,44.6 c 46.81,137.6 96.69,272.7 149.7,404.7 l 75.61,-51.1 c -52.16,-130 -101.23,-262.9 -147.3,-398.2 z m 5014.77,-272.4 -85.1,7.2 c 6.47,129.6 13.05,275.3 20.11,445.4 l 85.15,-6 c -7.08,-170.5 -13.67,-316.6 -20.16,-446.6 z m -1934.3,-82.2 c -78.02,138.3 -143.03,251.9 -204.62,357.4 l 67.98,66.8 c 61.87,-106 127.16,-220 205.46,-358.9 z M 16914,12171.8 c -34.4,143.3 -71,284.4 -109,419.4 l 80.1,37.9 c 38.4,-136.6 75.5,-279.4 110.3,-424.5 z m -4980.2,-49 c -55.2,110.5 -109.9,240.5 -167.2,397.6 l 77.1,47.4 c 55.7,-152.7 108.5,-278.5 161.7,-384.8 z m 887.6,-76.1 -62.7,75.1 c 64.7,90.8 134,202.9 211.9,342.6 l 69.1,-64.9 c -79.9,-143.3 -151.3,-258.7 -218.3,-352.8 z m -10416.99,-105.4 -81.55,32.3 c 33.89,143.8 71.06,286.7 110.49,424.9 l 79.97,-38.4 c -38.86,-136.2 -75.5,-277.1 -108.91,-418.8 z m 9965.49,-238.4 c -66.4,0 -131.5,25.7 -193.6,76.5 l 45.4,93.6 c 93.3,-76.4 185.1,-76.6 284.2,-15.6 l 36.6,-99.9 c -58.5,-36.2 -116.6,-54.6 -172.6,-54.6 z m -6243.04,-9.1 c -69.32,121.4 -141.21,249.8 -203.16,360.6 l 69.03,65 c 61.83,-110.6 133.57,-238.7 202.66,-359.8 z m 1467.13,-89.9 -84.57,14.1 c 13.1,132 24.84,276.7 35.88,442.1 l 84.96,-9.6 c -11.15,-166.9 -23.01,-313.1 -36.27,-446.6 z m 9495.11,-288.4 c -25.2,146.1 -52.4,291 -80.9,430.6 l 82.4,28.3 c 28.8,-141 56.3,-287.2 81.7,-434.7 z m -14848.75,-232.7 -83.72,21 c 22.09,147.7 47.09,294.9 74.3,437.7 l 82.78,-26.6 c -26.87,-140.9 -51.55,-286.3 -73.36,-432.1 z m 4317.3,-90.8 c -67.93,98.2 -140.53,211.1 -221.94,345.3 l 67.01,68.5 c 80.26,-132.4 151.69,-243.5 218.38,-339.9 z m 869.04,-269.1 -75.94,50.3 c 39.03,99.2 73.54,236.8 102.56,409 l 83.31,-23.6 c -31.01,-184.1 -66.98,-326.6 -109.93,-435.7 z m -295.86,-263.2 c -118.49,24.2 -204.19,94.2 -322.92,215 l 53.9,85.7 c 104.01,-105.5 179.13,-168.9 278.11,-190.7 z M 17216,10444 c -17.8,147.7 -37.3,294.8 -57.9,437.2 l 83.8,20.5 c 20.8,-143.6 40.4,-291.8 58.3,-440.6 z m -15074.12,-237.3 -84.85,11 c 11.58,149.6 25.7,299.2 41.97,444.5 l 84.39,-15.9 c -16.09,-143.7 -30.06,-291.6 -41.51,-439.6 z M 17302,9563.6 c -11.4,148.5 -24.3,296.9 -38.3,441.1 l 84.6,13.8 c 14.1,-145 27.1,-294.4 38.6,-444 z m -15200.65,-241.4 -85.25,2.2 c 2.37,150.2 6.95,300.6 13.61,447.1 l 85.13,-6.5 c -6.6,-145.1 -11.14,-294.1 -13.49,-442.8 z M 17353,8678.1 c -5.9,148.6 -13.1,297.7 -21.4,443.2 l 85,8.2 c 8.4,-146.3 15.7,-296.3 21.6,-445.8 z m -15326.57,-248 c -5.66,149.8 -9.41,300.1 -11.15,446.9 l 85.26,1.8 c 1.73,-145.6 5.45,-294.8 11.06,-443.3 z m 15346.77,-640 c -1,148.8 -3.2,298.3 -6.5,444.2 l 85.2,3.2 c 3.4,-146.6 5.5,-296.8 6.6,-446.4 z M 2081.68,7538.7 c -12.72,148.9 -23.78,298.7 -32.89,445.1 l 84.99,8.9 c 9.05,-145.3 20.03,-294 32.65,-441.8 z m 15369.62,-640.4 -85.3,3.2 c 3.3,148.7 5.6,298.2 6.8,444.3 l 85.3,-1.2 c -1.2,-146.8 -3.5,-296.9 -6.8,-446.3 z M 2176.65,6653.2 c -18.96,147.5 -36.52,296.1 -52.18,441.9 l 84.46,15.3 c 15.55,-144.8 32.99,-292.5 51.83,-438.9 z m 15242.75,-646.6 -85.2,7 c 7.3,148 13.6,297.3 18.9,443.8 l 85.1,-5.2 c -5.2,-147 -11.6,-297 -18.8,-445.6 z M 2307.41,5775.7 c -24.63,145.6 -48.06,292.9 -69.65,437.7 l 83.72,21 c 21.46,-143.9 44.75,-290.3 69.22,-435 z m 15057.69,-658.8 -84.9,10.4 c 10.8,148.1 20.8,297.1 29.7,442.9 l 85,-8.8 c -9,-146.3 -19,-295.9 -29.8,-444.5 z M 2471.37,4907.6 c -29.85,143 -58.79,288.6 -86.04,432.8 l 82.82,26.3 c 27.09,-143.3 55.86,-288.1 85.52,-430.2 z m 14819.03,-677.8 -84.7,13.5 c 14.1,147.6 27.4,296.2 39.7,441.7 l 84.8,-12 c -12.3,-146.1 -25.7,-295.2 -39.8,-443.2 z m -14622.37,-179 c -34.86,138.6 -69.36,282.2 -102.52,426.8 l 81.73,31.6 c 32.95,-143.7 67.22,-286.4 101.86,-424.1 l -81.07,-34.3"
         style="fill:#dce6ff;fill-opacity:1;fill-rule:nonzero;stroke:none"
         id="path18" /><path
         d="m 17830.8,5733.6 c -707.7,136.1 -592.2,-1093.4 -1600.9,-1093.4 -922.2,0 -1217.2,4682 -1888.2,3343.6 -3440,-6861.3 -1442.5,2917.9 -4178.2,3042.1 C 8926.46,11082.1 8102.16,9370.8 7798.19,6340.9 7357.57,3601.7 6335.71,8430.1 5284.1,7981.2 4615.76,7695.8 4692.3,4640.2 3770.07,4640.2 2761.39,4640.2 2876.86,5869.7 2169.23,5733.6 1407.35,5587.1 1179.79,3411 1179.79,3411 H 18820.2 c 0,0 -227.5,2176.1 -989.4,2322.6"
         style="fill:#eef7ff;fill-opacity:1;fill-rule:nonzero;stroke:none"
         id="path20" /><path
         d="m 17204.1,4402.8 c -651,58.1 -544.8,-466.9 -1472.7,-466.9 -848.4,0 -825.1,1176.5 -1392.9,1426.6 C 13293,5823 12431,3492.4 12025.6,4662.1 c -769.9,3103.6 -3015.31,4660.1 -4051.21,0 -405.36,-1169.7 -1353.29,917.4 -2312.9,700.4 -590.67,-133.6 -544.45,-1426.6 -1392.88,-1426.6 -927.96,0 -821.72,525 -1472.73,466.9 C 2094.97,4340.2 1885.62,3411 1885.62,3411 H 18114.4 c 0,0 -209.4,929.2 -910.3,991.8"
         style="fill:#dce6ff;fill-opacity:1;fill-rule:nonzero;stroke:none"
         id="path22" /><path
         d="m 1192.91,3411 c 0,0 -123.77,-481.6 388.96,-602.2 701.3,-164.9 4817.85,-598.2 3817.79,-927.5 -564.53,-185.9 288.19,-438.3 3037.88,-531.2 2749.66,-92.9 7467.96,271.2 5881.26,810 -1586.7,538.8 4877.9,130.1 4484.1,1250.9 H 1192.91"
         style="fill:#cfddf9;fill-opacity:1;fill-rule:nonzero;stroke:none"
         id="path24" /><path
         d="m 16471.4,10722.6 -57.7,0.6 c 0,0.7 0.5,72.8 -15.1,187.5 l 57.2,7.8 c 16.2,-119.3 15.7,-192.8 15.6,-195.9"
         style="fill:#8a9edd;fill-opacity:1;fill-rule:nonzero;stroke:none"
         id="path26" /><path
         d="m 14594.9,12666.8 c -122.7,21 -252.8,35.7 -386.6,43.9 l 3.5,57.6 c 135.9,-8.3 268.1,-23.3 392.8,-44.6 z m 737.1,-234.4 c -111.6,56.3 -232.5,104.9 -359.3,144.5 l 17.2,55.2 c 129.9,-40.6 253.7,-90.5 368,-148.2 z m 606.7,-471.6 c -83.2,97.4 -177.2,187 -279.5,266.1 l 35.3,45.7 c 105.4,-81.6 202.4,-173.9 288.1,-274.3 z m 373,-672.9 c -40.7,124.3 -92.4,243.8 -153.7,355 l 50.6,27.9 c 63.1,-114.4 116.2,-237.2 158,-365 l -54.9,-17.9"
         style="fill:#8a9edd;fill-opacity:1;fill-rule:nonzero;stroke:none"
         id="path28" /><path
         d="m 13625.5,12708.3 -3.6,57.7 c 65.1,4 130.2,6.9 193.4,8.6 l 1.5,-57.7 c -62.5,-1.7 -126.9,-4.5 -191.3,-8.6"
         style="fill:#8a9edd;fill-opacity:1;fill-rule:nonzero;stroke:none"
         id="path30" /><path
         d="m 3312.12,10409.2 c -108.34,52 -169.59,93.3 -172.14,95 l 32.39,47.8 c 0.6,-0.4 60.63,-40.8 164.73,-90.7 l -24.98,-52.1"
         style="fill:#8a9edd;fill-opacity:1;fill-rule:nonzero;stroke:none"
         id="path32" /><path
         d="m 5143.75,10461 -28.79,50.1 c 103.71,59.6 206.21,130.8 304.66,211.5 l 36.61,-44.7 c -100.89,-82.7 -206.03,-155.7 -312.48,-216.9 z m -718.36,-243.7 -7.08,57.3 c 121.76,15 242.89,42.9 360.02,83 l 18.7,-54.6 c -120.9,-41.4 -245.94,-70.2 -371.64,-85.7 z m -381.28,-7.7 c -124.69,10 -250.91,32.4 -375.16,66.5 l 15.28,55.7 c 120.78,-33.1 243.42,-54.9 364.52,-64.7 l -4.64,-57.5"
         style="fill:#8a9edd;fill-opacity:1;fill-rule:nonzero;stroke:none"
         id="path34" /><path
         d="m 5732.86,10939.1 -42.29,39.3 c 42.32,45.5 84.62,93.8 125.72,143.5 l 44.5,-36.8 c -41.81,-50.6 -84.85,-99.7 -127.93,-146"
         style="fill:#8a9edd;fill-opacity:1;fill-rule:nonzero;stroke:none"
         id="path36" /><path
         d="m 3183.2,14357.8 -54.04,20.3 c 1.05,2.8 26.51,70.1 80.03,178.2 l 51.75,-25.7 c -52.11,-105.2 -77.49,-172.2 -77.74,-172.8"
         style="fill:#8a9edd;fill-opacity:1;fill-rule:nonzero;stroke:none"
         id="path38" /><path
         d="m 5531.51,16016.1 c -94.63,15.3 -195.39,18.7 -299.61,10.2 -18.98,-1.5 -38.14,-3.4 -56.95,-5.4 l -6.22,57.4 c 19.32,2.1 38.99,4 58.48,5.6 108.85,8.8 214.29,5.2 313.5,-10.8 z m -1046.07,-194.5 -25.39,51.9 c 111.4,54.5 227.61,99.4 345.4,133.5 l 16.02,-55.5 c -114.57,-33.1 -227.63,-76.8 -336.03,-129.9 z m 1660.61,-137.9 c -84.88,89.9 -179,163.4 -279.73,218.4 l 27.68,50.7 c 106.06,-58 204.98,-135.2 294.04,-229.4 z m -2248.72,-277.5 -39.88,41.8 c 90.9,86.8 186.71,166.1 284.77,235.8 l 33.45,-47 c -95.79,-68.1 -189.44,-145.7 -278.34,-230.6 z m 2611.64,-338.7 c -43.71,118.7 -94.58,228.8 -151.22,327.4 l 50.07,28.7 c 58.25,-101.3 110.51,-214.4 155.34,-336.2 z m -3069.19,-221.6 -48.6,31.2 c 67.19,104.7 139.9,205.4 216.1,299.1 l 44.81,-36.4 c -74.84,-92.1 -146.27,-191 -212.31,-293.9 z m 3233.97,-483.3 c -15.02,122.7 -36,243 -62.33,357.6 l 56.27,12.9 c 26.79,-116.5 48.12,-238.8 63.38,-363.5 z m 76.48,-729.3 -57.59,4.3 c 6.24,84.5 9.41,172.2 9.41,260.8 -0.01,33.9 -0.47,68.1 -1.38,101.9 l 57.72,1.6 c 0.93,-34.3 1.39,-69.1 1.4,-103.5 0,-90 -3.22,-179.2 -9.56,-265.1"
         style="fill:#8a9edd;fill-opacity:1;fill-rule:nonzero;stroke:none"
         id="path40" /><path
         d="m 6648.41,13076.9 -54.64,18.7 c 18.56,54.3 35.19,115.7 49.44,182.4 l 56.47,-12.1 c -14.72,-68.9 -31.97,-132.5 -51.27,-189"
         style="fill:#8a9edd;fill-opacity:1;fill-rule:nonzero;stroke:none"
         id="path42" /><path
         d="m 6654.87,8152.8 c -116.31,30.5 -184.1,56.7 -186.93,57.8 l 20.92,53.9 c 0.66,-0.3 67.88,-26.2 180.68,-55.8 l -14.67,-55.9"
         style="fill:#8a9edd;fill-opacity:1;fill-rule:nonzero;stroke:none"
         id="path44" /><path
         d="m 8620.13,8450.3 -34.16,46.5 c 105.3,77.3 204.97,167.4 296.24,267.7 l 42.73,-38.8 c -93.86,-103.2 -196.4,-195.9 -304.81,-275.4 z m -745.65,-335.5 -12.55,56.3 c 132.11,29.4 259.71,71.5 379.27,125 l 23.61,-52.7 C 8141.7,8188.3 8010.37,8145 7874.48,8114.8 Z m -511.31,-54.5 c -100.12,0 -202.91,5.9 -305.52,17.5 l 6.48,57.4 c 135.25,-15.3 270.04,-20.4 400.81,-15.1 l 2.37,-57.6 c -34.41,-1.5 -69.45,-2.2 -104.14,-2.2"
         style="fill:#8a9edd;fill-opacity:1;fill-rule:nonzero;stroke:none"
         id="path46" /><path
         d="m 9173.35,9053 -48.74,30.9 c 33.35,52.5 65.77,107.8 96.36,164.3 l 50.78,-27.5 c -31.22,-57.7 -64.33,-114.1 -98.4,-167.7"
         style="fill:#8a9edd;fill-opacity:1;fill-rule:nonzero;stroke:none"
         id="path48" /><path
         d="m 11261.6,9925 -11.8,56.5 c 3,0.6 74.5,15.4 194.9,23.7 l 4,-57.6 c -116.1,-8 -186.4,-22.5 -187.1,-22.6"
         style="fill:#8a9edd;fill-opacity:1;fill-rule:nonzero;stroke:none"
         id="path50" /><path
         d="m 12165.2,9886.5 c -115.4,28.1 -235.2,47.6 -356,57.8 l 4.9,57.6 c 123.8,-10.5 246.5,-30.5 364.8,-59.3 z m 659.3,-283 c -100.1,65.2 -206.9,122.2 -317.5,169.5 l 22.7,53.1 c 113.6,-48.6 223.4,-107.2 326.3,-174.2 z m 527.2,-486.9 c -75.3,96 -157.3,185.3 -243.6,265.4 l 39.3,42.3 c 88.5,-82.1 172.6,-173.7 249.8,-272.1 l -45.5,-35.6"
         style="fill:#8a9edd;fill-opacity:1;fill-rule:nonzero;stroke:none"
         id="path52" /><path
         d="m 13644.2,8649 c -28.6,57.6 -59,114.1 -90.2,167.9 l 49.9,28.9 c 31.9,-54.8 62.8,-112.4 92,-171.1 l -51.7,-25.7"
         style="fill:#8a9edd;fill-opacity:1;fill-rule:nonzero;stroke:none"
         id="path54" /><path
         d="m 15679.2,14566.9 c -0.1,0.8 -15.4,71 -52,182.1 l 54.8,18.1 c 37.7,-114.4 53,-185.1 53.7,-188 l -56.5,-12.2"
         style="fill:#8a9edd;fill-opacity:1;fill-rule:nonzero;stroke:none"
         id="path56" /><path
         d="m 14275.4,16296.7 c -129.2,50.1 -266.4,87.4 -407.9,110.9 l 9.4,57 c 145.4,-24.2 286.5,-62.6 419.4,-114.1 z m 702.5,-462.4 c -101.6,101.6 -211.7,191.9 -327.2,268.3 l 31.9,48.2 c 118.7,-78.6 231.8,-171.3 336.1,-275.7 z m 487.7,-692 c -64.3,129.8 -136.9,252.9 -216.1,366.2 l 47.3,33.1 c 80.8,-115.7 155,-241.3 220.5,-373.7 l -51.7,-25.6"
         style="fill:#8a9edd;fill-opacity:1;fill-rule:nonzero;stroke:none"
         id="path58" /><path
         d="m 13253.9,16429.5 -4.7,57.6 c 65.4,5.3 130.8,8.4 194.2,9.3 l 0.7,-57.8 c -62.1,-0.8 -126.1,-3.8 -190.2,-9.1"
         style="fill:#8a9edd;fill-opacity:1;fill-rule:nonzero;stroke:none"
         id="path60" /><path
         d="m 12982.4,16157.3 -36.6,44.6 c 92.8,76.2 154.4,115.5 157,117.2 l 30.9,-48.8 c -0.6,-0.4 -61.5,-39.3 -151.3,-113"
         style="fill:#8a9edd;fill-opacity:1;fill-rule:nonzero;stroke:none"
         id="path62" /><path
         d="m 12467.4,15582.4 -48.6,31.2 c 69.6,108.5 150.6,214.4 240.8,314.7 l 43,-38.6 c -88.2,-98 -167.3,-201.4 -235.2,-307.3 z m -283.7,-712.8 -56.9,9.9 c 22.4,128.9 59.2,257.4 109.3,381.9 l 53.5,-21.6 c -48.5,-120.7 -84.2,-245.2 -105.9,-370.2 z m -25.3,-779.4 c -32.2,131.4 -51.4,263.6 -56.9,392.8 l 57.7,2.5 c 5.4,-125.5 24,-253.8 55.3,-381.6 z m 307.4,-727.2 c -70,117.3 -130.8,235.6 -180.6,351.8 l 53,22.8 c 48.9,-113.9 108.5,-229.9 177.1,-345 l -49.5,-29.6"
         style="fill:#8a9edd;fill-opacity:1;fill-rule:nonzero;stroke:none"
         id="path64" /><path
         d="m 12806,12882.7 c -41.5,50.6 -81.7,101.9 -119.5,152.4 l 46.2,34.6 c 37.3,-49.8 77,-100.5 118,-150.5 l -44.7,-36.5"
         style="fill:#8a9edd;fill-opacity:1;fill-rule:nonzero;stroke:none"
         id="path66" /><path
         d="m 9775.23,15692.4 c -99.69,63.6 -162.9,94.4 -163.53,94.7 l 25.13,52 c 2.67,-1.3 66.58,-32.4 169.46,-98 l -31.06,-48.7"
         style="fill:#8a9edd;fill-opacity:1;fill-rule:nonzero;stroke:none"
         id="path68" /><path
         d="m 10396.6,15168.5 c -91.9,99.6 -190.9,194.4 -294.3,281.8 l 37.3,44.1 c 105.2,-88.9 205.9,-185.4 299.4,-286.7 z m 471.2,-662.1 c -63.5,119 -135.7,235.5 -214.4,346 l 47,33.5 c 80.2,-112.6 153.7,-231.1 218.3,-352.4 z m 286.8,-760.1 c -31.6,132.5 -71.6,263.5 -119,389.3 l 54,20.3 c 48.3,-128 89,-261.3 121.2,-396.2 z m 94.6,-808.1 c -0.8,137.7 -9,274.6 -24.2,406.9 l 57.4,6.6 c 15.5,-134.4 23.7,-273.4 24.5,-413.2 z m -16.7,-822.6 -56.8,10.2 c 24.6,136.4 43.3,272.5 55.5,404.7 l 57.5,-5.3 c -12.4,-133.8 -31.3,-271.6 -56.2,-409.6 z m -206.1,-799.4 -54.8,18.1 c 43.7,131.9 82.8,263.9 116.1,392.3 l 55.9,-14.5 c -33.7,-129.7 -73.1,-262.9 -117.2,-395.9"
         style="fill:#8a9edd;fill-opacity:1;fill-rule:nonzero;stroke:none"
         id="path70" /><path
         d="m 10811.3,10749.1 -53.1,22.7 c 25.2,59.1 49.7,118.8 73,177.3 l 53.6,-21.3 c -23.4,-58.9 -48.1,-119 -73.5,-178.7"
         style="fill:#8a9edd;fill-opacity:1;fill-rule:nonzero;stroke:none"
         id="path72" /><path
         d="m 6577.61,12430.8 c -29.23,119.4 -32.99,192 -33.13,195 l 57.67,2.8 -28.84,-1.4 28.84,1.4 c 0.04,-0.7 3.78,-70.7 31.55,-184 l -56.09,-13.8"
         style="fill:#8a9edd;fill-opacity:1;fill-rule:nonzero;stroke:none"
         id="path74" /><path
         d="m 6900.24,11739.2 c -74.68,106 -139.66,217.3 -193.14,330.6 l 52.23,24.6 c 52.06,-110.3 115.35,-218.6 188.13,-322 z m 528.53,-549.5 c -102.23,80.1 -197.88,165.9 -284.28,255.2 l 41.49,40.1 c 84.57,-87.4 178.23,-171.4 278.37,-249.8 z m 650.21,-396.2 c -117.43,55.6 -230.45,116.1 -335.93,180 l 29.9,49.4 c 103.8,-62.9 215.07,-122.5 330.72,-177.2 l -24.69,-52.2"
         style="fill:#8a9edd;fill-opacity:1;fill-rule:nonzero;stroke:none"
         id="path76" /><path
         d="m 8613.58,10582.6 c -61.96,20.2 -123.5,41.5 -182.91,63.5 l 20.03,54.2 c 58.7,-21.7 119.52,-42.9 180.76,-62.8 l -17.88,-54.9"
         style="fill:#8a9edd;fill-opacity:1;fill-rule:nonzero;stroke:none"
         id="path78" /><path
         d="m 9399.66,14352.4 c -25.82,-312.6 -491.29,-282.1 -476.12,31.1 25.82,312.6 491.29,282.1 476.12,-31.1"
         style="fill:#eb5648;fill-opacity:1;fill-rule:nonzero;stroke:none"
         id="path80" /><path
         d="m 8626.49,16483 c -56.13,589.3 492.42,1026.6 1057.4,858.1 740.11,-235.8 678.81,-1244.2 134.62,-1659.9 -255.48,-174.4 -525.96,-512 -569.44,-785.4 -31.42,-160.7 -160.33,-121.5 -179.62,31.3 -35.11,696.8 367.53,799.1 628.73,1288.5 291.64,817.7 -664.7,873.8 -954.3,246.8 -28.61,-52.9 -113.26,-42.1 -117.39,20.6"
         style="fill:#eb5648;fill-opacity:1;fill-rule:nonzero;stroke:none"
         id="path82" /><path
         d="m 6022.29,11075.1 c -41.44,-240.9 -400.72,-185.4 -367.5,56.8 41.44,240.9 400.72,185.3 367.5,-56.8"
         style="fill:#fcb4b4;fill-opacity:1;fill-rule:nonzero;stroke:none"
         id="path84" /><path
         d="m 5567.87,12782.2 c -3.25,461.3 452.54,763.2 879.64,593.8 558.45,-233.7 441.82,-1012.4 -9.09,-1297.9 -210.29,-118 -443.38,-361.5 -495.85,-570.8 -35.39,-122.6 -132.78,-83.4 -137.31,36.6 20.44,543.4 340.03,595.2 576.31,957.3 282.38,614.8 -456.24,723.8 -723.98,256.9 -25.83,-39.1 -90.81,-24.9 -89.72,24.1"
         style="fill:#fcb4b4;fill-opacity:1;fill-rule:nonzero;stroke:none"
         id="path86" /><path
         d="m 5868.06,6516.9 c -48.03,-279.3 -464.5,-214.9 -425.99,65.8 48.03,279.2 464.49,214.8 425.99,-65.8"
         style="fill:#3a72aa;fill-opacity:1;fill-rule:nonzero;stroke:none"
         id="path88" /><path
         d="m 5341.31,8495.6 c -3.77,534.8 524.58,884.8 1019.65,688.3 647.34,-270.9 512.15,-1173.5 -10.54,-1504.4 -243.75,-136.7 -513.94,-419.1 -574.77,-661.6 -41.02,-142.2 -153.92,-96.7 -159.16,42.3 23.69,630 394.15,690 668.03,1109.7 327.33,712.7 -528.86,839.1 -839.21,297.9 -29.94,-45.4 -105.26,-29 -104,27.8"
         style="fill:#3a72aa;fill-opacity:1;fill-rule:nonzero;stroke:none"
         id="path90" /><path
         d="m 13907.2,6164.4 c 3.8,-276.6 -407.4,-289.3 -420.7,-13.1 -3.9,276.7 407.4,289.4 420.7,13.1"
         style="fill:#eb5648;fill-opacity:1;fill-rule:nonzero;stroke:none"
         id="path92" /><path
         d="m 13047.4,7969.3 c -99.4,512.6 345.1,943.1 855.4,843.2 669.8,-144.1 701.6,-1034.7 259.2,-1445.8 -209.5,-174.9 -418.3,-494.3 -433.2,-737.9 -13.9,-143.8 -130.4,-120.4 -160.4,12.1 -90,608.9 254.8,732.8 442.6,1184.7 186.5,742.6 -657.8,710.6 -858.8,135.6 -20.6,-48.9 -95.9,-46.6 -104.8,8.1"
         style="fill:#eb5648;fill-opacity:1;fill-rule:nonzero;stroke:none"
         id="path94" /><path
         d="m 13116.6,15647.8 c -32.3,-187.8 -312.5,-144.5 -286.6,44.3 32.3,187.8 312.5,144.5 286.6,-44.3"
         style="fill:#eb5648;fill-opacity:1;fill-rule:nonzero;stroke:none"
         id="path96" /><path
         d="m 12762.3,16978.8 c -2.6,359.6 352.8,595.1 685.8,463 435.4,-182.3 344.5,-789.4 -7.1,-1012 -163.9,-91.9 -345.7,-281.9 -386.6,-445 -27.6,-95.6 -103.5,-65 -107,28.5 15.9,423.7 265.1,464.1 449.3,746.4 220.2,479.4 -355.7,564.4 -564.5,200.3 -20.1,-30.5 -70.8,-19.4 -69.9,18.8"
         style="fill:#eb5648;fill-opacity:1;fill-rule:nonzero;stroke:none"
         id="path98" /><path
         d="m 2750.72,12878.8 c -32.31,-187.8 -312.43,-144.5 -286.53,44.3 32.31,187.8 312.43,144.5 286.53,-44.3"
         style="fill:#3a72aa;fill-opacity:1;fill-rule:nonzero;stroke:none"
         id="path100" /><path
         d="m 2396.42,14209.8 c -2.54,359.6 352.84,595.1 685.84,462.9 435.41,-182.2 344.47,-789.3 -7.09,-1011.9 -163.96,-91.9 -345.69,-281.9 -386.6,-445 -27.6,-95.6 -103.53,-65 -107.06,28.5 15.93,423.7 265.11,464.1 449.33,746.4 220.17,479.4 -355.72,564.4 -564.47,200.3 -20.14,-30.5 -70.8,-19.4 -69.95,18.8"
         style="fill:#3a72aa;fill-opacity:1;fill-rule:nonzero;stroke:none"
         id="path102" /><path
         d="m 3281.35,9401.2 c 63.84,-165.3 -180.32,-264.4 -249.73,-101.4 -63.83,165.3 180.33,264.4 249.73,101.4"
         style="fill:#eb5648;fill-opacity:1;fill-rule:nonzero;stroke:none"
         id="path104" /><path
         d="m 2363.66,10294.1 c -173.63,285.7 -2.42,643.1 326.31,696.6 434.34,62.3 651.45,-465.5 477.14,-810.8 -86.93,-151.6 -141.32,-389.8 -96.13,-539.5 23.61,-89.4 -51.59,-101.3 -99.01,-28.3 -189.44,345.6 -9.9,496.7 2.39,809.9 -53.06,487.5 -553.08,280.5 -545.95,-109.5 -1.5,-34 -47.21,-49.3 -64.75,-18.4"
         style="fill:#eb5648;fill-opacity:1;fill-rule:nonzero;stroke:none"
         id="path106" /><path
         d="m 16509.2,13137 c 63.8,-165.3 -180.4,-264.4 -249.8,-101.4 -63.8,165.3 180.3,264.3 249.8,101.4"
         style="fill:#fcb4b4;fill-opacity:1;fill-rule:nonzero;stroke:none"
         id="path108" /><path
         d="m 15591.5,14029.8 c -173.7,285.8 -2.5,643.2 326.3,696.6 434.3,62.4 651.4,-465.4 477.1,-810.7 -86.9,-151.6 -141.3,-389.8 -96.1,-539.5 23.6,-89.5 -51.6,-101.3 -99,-28.3 -189.5,345.6 -9.9,496.7 2.4,809.9 -53.1,487.5 -553.1,280.5 -546,-109.5 -1.5,-34 -47.2,-49.3 -64.7,-18.5"
         style="fill:#fcb4b4;fill-opacity:1;fill-rule:nonzero;stroke:none"
         id="path110" /><path
         d="m 5574.3,15579.4 c 63.83,-165.2 -180.33,-264.3 -249.74,-101.3 -63.83,165.2 180.33,264.3 249.74,101.3"
         style="fill:#9358e0;fill-opacity:1;fill-rule:nonzero;stroke:none"
         id="path112" /><path
         d="m 4656.6,16472.3 c -173.62,285.8 -2.42,643.2 326.32,696.6 434.33,62.4 651.44,-465.4 477.13,-810.7 -86.93,-151.6 -141.31,-389.9 -96.12,-539.5 23.6,-89.5 -51.59,-101.3 -99.02,-28.4 -189.43,345.7 -9.9,496.8 2.39,809.9 -53.06,487.6 -553.08,280.6 -545.94,-109.5 -1.51,-33.9 -47.21,-49.3 -64.76,-18.4"
         style="fill:#9358e0;fill-opacity:1;fill-rule:nonzero;stroke:none"
         id="path114" /><path
         d="m 13548.2,10896.5 c 34,-242.1 -325.1,-298.7 -367.3,-58 -34,242.1 325.1,298.7 367.3,58"
         style="fill:#9358e0;fill-opacity:1;fill-rule:nonzero;stroke:none"
         id="path116" /><path
         d="m 12594.9,12383.7 c -143.7,438.4 198.3,864.9 656.7,833.7 603.1,-52.2 729.5,-829.4 387.1,-1238.8 -164.3,-176.4 -312,-479.5 -298.2,-694.8 3.7,-127.6 -101,-119.9 -141.9,-7 -146.3,523.8 142.3,670.5 256.9,1087.4 81.5,671.7 -655.2,550.3 -767.8,24 -12.7,-45.2 -78.9,-51.5 -92.8,-4.5"
         style="fill:#9358e0;fill-opacity:1;fill-rule:nonzero;stroke:none"
         id="path118" /><path
         d="m 15980.9,9054.5 c -41.9,-196.1 -334.5,-138.7 -299.3,58.6 41.9,196 334.5,138.7 299.3,-58.6"
         style="fill:#3a72aa;fill-opacity:1;fill-rule:nonzero;stroke:none"
         id="path120" /><path
         d="m 15664.8,10468.2 c 12.6,378.1 396,610.5 740.4,457.6 449.9,-209.9 328.6,-844.2 -50.2,-1063.2 -176.2,-89.7 -375.3,-281.6 -425.2,-451.4 -33,-99.3 -111.5,-63.9 -111.3,34.5 34.7,444.6 298.3,476.6 503.8,765.5 251.7,494.5 -350,608.1 -584.7,234.4 -22.5,-31.3 -75.3,-17.5 -72.8,22.6"
         style="fill:#3a72aa;fill-opacity:1;fill-rule:nonzero;stroke:none"
         id="path122" /><path
         d="m 9829.39,11430.5 c -4.09,30.7 -6.61,63.9 -7.94,98.5 -7.94,200.3 23.22,448.5 39.46,541.4 4.45,25.1 7.7,38.8 8.91,37.1 1.44,5.9 3.12,11.7 5.05,17.3 21.54,67.4 67.13,108.1 119.95,126.3 0.12,0 0.12,0 0.12,0 78.16,26.7 172.26,4.1 229.76,-55.1 1.2,-1.2 2.3,-2.5 3.4,-3.7 36.3,-39.2 56.8,-93.6 47,-159.8 -0.5,-3 -0.8,-6.2 -1.4,-9.2 -0.7,-4.2 -1.6,-8.3 -2.5,-12.4 -9.7,6.4 -36.6,-254.6 -36.9,-444 0,-62.4 2.9,-117.1 10.3,-151.9 388.6,-116.5 -780.14,-499.7 -415.21,15.5"
         style="fill:#f99370;fill-opacity:1;fill-rule:nonzero;stroke:none"
         id="path124" /><path
         d="m 9425.7,11232.7 c -278.35,-362.5 -406.1,-782.9 -689.45,-1125.7 -19.53,-17.2 151.98,849.6 231.51,1344.4 58.72,155.7 -101.41,204.4 -101.41,204.4 -546,-389.6 -1328.17,-1910.5 -272.03,-2235.4 776.2,-175.2 1131.79,843.2 1499.18,1332.3 297.8,435.3 -350.61,900.4 -667.8,480"
         style="fill:#f99370;fill-opacity:1;fill-rule:nonzero;stroke:none"
         id="path126" /><path
         d="m 7970.83,9905.5 c 6.84,-241.8 173.6,-599.3 638.29,-599.3 h 1.54 c 265.96,0.7 462.48,190 610.42,458.7 279.12,506.6 385.34,1296.1 457.34,1636.7 -311.62,-34.2 -736.3,-499.8 -867.99,-883.1 36.26,164.7 87.91,412.2 108.43,589.4 5.65,48.4 8.9,91.7 8.9,126.5 -32.33,-1.7 -217.21,-8.7 -346,155.5 -5.13,-6.3 -31.81,-36.4 -71.15,-87 -161.97,-207.7 -540.12,-758.4 -539.78,-1397.4"
         style="fill:#1d3f70;fill-opacity:1;fill-rule:nonzero;stroke:none"
         id="path128" /><path
         d="m 9534.24,12366.2 c 0,0 -20.82,215.2 29.29,370.9 l 129.58,-46.1 -158.87,-324.8"
         style="fill:#8e4a35;fill-opacity:1;fill-rule:nonzero;stroke:none"
         id="path130" /><path
         d="m 9602.41,11737.4 c 212.61,-164.9 633.59,-146.2 760.69,28.2 474.5,650.7 -456.88,1788 -764.69,757.4 -111.38,-296.9 -346.23,-466 4,-785.6"
         style="fill:#f99370;fill-opacity:1;fill-rule:nonzero;stroke:none"
         id="path132" /><path
         d="m 9833.61,12330.7 c -8.43,12.7 -4.94,29.9 7.8,38.3 12.73,8.4 29.89,4.9 38.32,-7.8 8.42,-12.8 4.93,-29.9 -7.8,-38.3 -12.74,-8.5 -29.9,-5 -38.32,7.8"
         style="fill:#c16256;fill-opacity:1;fill-rule:nonzero;stroke:none"
         id="path134" /><path
         d="m 9598.2,12342.9 c -8.43,12.8 -4.94,29.9 7.8,38.3 12.73,8.5 29.89,5 38.32,-7.8 8.43,-12.7 4.93,-29.8 -7.8,-38.3 -12.74,-8.4 -29.89,-4.9 -38.32,7.8"
         style="fill:#c16256;fill-opacity:1;fill-rule:nonzero;stroke:none"
         id="path136" /><path
         d="m 9697,12113.3 c 16.32,-0.1 32.62,2.6 45.99,8.7 5.27,2.4 7.62,8.6 5.22,13.8 -2.33,5.3 -8.63,7.6 -13.81,5.2 -33.63,-15.1 -84.94,-3.3 -93.49,11.7 -3.01,5.3 3.83,11.6 10.1,16 55.24,38.7 82.01,154.7 83.11,159.7 1.26,5.6 -2.27,11.2 -7.9,12.5 -5.48,1.1 -11.22,-2.3 -12.51,-7.9 -0.26,-1.2 -26.08,-113.1 -74.7,-147.1 -26.53,-18.6 -20.22,-36.7 -16.29,-43.6 10.27,-18 42.3,-28.9 74.28,-29"
         style="fill:#c16256;fill-opacity:1;fill-rule:nonzero;stroke:none"
         id="path138" /><path
         d="m 9624.27,12600.2 c 142.71,96.3 414.63,49.1 549.03,65.7 0,0 -2.3,-230.2 245,-365.7 43.2,-206.6 87.9,-293.8 -97.3,-572.8 v 0 c 15,11.8 29,24.5 42.1,38.2 h 0.3 c 585.7,740.1 -380.67,1756.7 -739.13,834.6"
         style="fill:#e57d61;fill-opacity:1;fill-rule:nonzero;stroke:none"
         id="path140" /><path
         d="m 9458.24,13034.2 c 66.26,178.5 309.4,299.2 552.16,115.7 186.9,-141.4 368.8,-119.3 384.3,-288.9 355.8,-115 230.4,-507 230.4,-507 l -171.8,0.7 c -211.5,134.7 -231.9,365.9 -231.9,365.9 v 0 c -42.9,-7 -88.6,-10.4 -130,-4.7 -128.42,17.7 -314.78,12 -449.57,-55.9 -134.77,-67.9 -257.66,174.8 -183.59,374.2"
         style="fill:#8e4a35;fill-opacity:1;fill-rule:nonzero;stroke:none"
         id="path142" /><path
         d="m 9962.66,11846 c -40.01,-7 -85.19,-13 -131.38,-15.4 -126.21,-6.7 -260.08,13.2 -317.56,111.9 21.37,175.2 206.11,116.4 332.47,27.6 59.46,-41.8 105.99,-90.3 116.47,-124.1 z m -545.56,136.9 c 0.67,-21.5 3.23,-44.6 7.68,-68.5 32.64,-177.3 166.51,-400.2 396.9,-390.8 17.49,0.6 35.56,2.7 54.17,6.2 101.64,9.1 237.85,32.9 359.15,86.3 173,76.2 315.7,212.9 284.7,454 v 0 c 0,0.2 0,0.4 0,0.6 l -24.4,104.2 v 0.1 l -0.2,0.9 -2.7,11.5 v 0 l -39.1,167.3 -124.6,113 v -0.1 c 1.1,-22.4 15.9,-69.7 27.9,-128.1 23.9,-116.9 36.8,-278.5 -93.3,-374.7 -1,-0.7 -2,-1.4 -3.1,-2.1 -111.4,-71.5 -252.7,10.4 -404.41,76.2 -141.28,61.3 -291.54,108.7 -434.99,5.4 -0.67,-4 -1.27,-7.9 -1.78,-12 v 0 c -1.89,-15.2 -2.53,-31.8 -1.92,-49.4"
         style="fill:#8e4a35;fill-opacity:1;fill-rule:nonzero;stroke:none"
         id="path144" /><path
         d="m 10664.8,12220 c -8.3,-89.2 -73.4,-156 -145.1,-149.3 -71.8,6.8 -123.2,84.6 -114.8,173.8 8.3,89.2 73.4,156 145.1,149.3 71.8,-6.8 123.2,-84.6 114.8,-173.8"
         style="fill:#f99370;fill-opacity:1;fill-rule:nonzero;stroke:none"
         id="path146" /><path
         d="m 10483.1,12316.4 c 2.6,1.4 64,33.4 103.9,4.2 10.2,-7.4 17.7,-18.3 22.7,-32 0.1,0 0.1,-0.2 0.1,-0.2 9.5,-25.9 10.1,-62.6 1.4,-110 -1,-5.1 -5.4,-8.6 -10.4,-8.6 -0.6,0 -1.2,0.1 -1.8,0.2 -5.7,1 -9.5,6.5 -8.4,12.2 6.8,37 7.6,66.5 2.8,88 -58.9,-17.4 -81,-88.8 -81.2,-89.5 -1.3,-4.6 -5.5,-7.5 -10.1,-7.5 -0.9,0 -1.9,0.2 -2.9,0.4 -5.5,1.7 -8.7,7.5 -7.1,13 1.1,3.6 25.2,82.3 94.1,103.3 -3.2,5.7 -6.9,10.4 -11.5,13.8 -29.2,21.6 -81.3,-5.5 -81.8,-5.8 -5.2,-2.7 -11.5,-0.7 -14.2,4.4 -2.7,5.1 -0.7,11.4 4.4,14.1"
         style="fill:#c16256;fill-opacity:1;fill-rule:nonzero;stroke:none"
         id="path148" /><path
         d="m 10953.8,9368.7 h 68 c -1.8,12.5 -2.8,18.9 -2.8,18.9 -2.8,-0.8 -5.6,-1.7 -8.4,-2.5 -16.4,-4.9 -32.9,-9.7 -49.5,-14.3 -2.4,-0.7 -4.9,-1.4 -7.3,-2.1"
         style="fill:#e8c0a6;fill-opacity:1;fill-rule:nonzero;stroke:none"
         id="path150" /><path
         d="m 9697.32,11951.5 c 1.23,0 2.48,0.2 3.69,0.8 4.71,2 6.89,7.5 4.86,12.2 -1.02,2.4 -25.93,58.5 -103.86,65.6 -5.11,0.4 -9.66,-3.4 -10.12,-8.5 -0.47,-5.1 3.31,-9.7 8.44,-10.1 66.47,-6.1 87.56,-52.4 88.43,-54.4 1.53,-3.5 4.96,-5.6 8.56,-5.6"
         style="fill:#c16256;fill-opacity:1;fill-rule:nonzero;stroke:none"
         id="path152" /><path
         d="m 8595.53,11389.9 332.23,-141 c 2.55,1.3 -4.34,141.4 91.81,168.2 105.82,29.5 209.77,155.2 207.71,160.6 33.09,-85 194.49,76.6 139.54,106.9 36.85,34 12.03,72.6 -34.04,95 30.82,29.8 -2.12,65.3 -46.47,79.6 53.72,28.2 97.21,42.5 156.95,60.9 81.81,25.3 27.74,72.2 -20.66,63.8 -395.2,-69 -554,-227.2 -827.07,-594"
         style="fill:#f99370;fill-opacity:1;fill-rule:nonzero;stroke:none"
         id="path154" /><path
         d="m 9593.59,12440.4 c 0.7,0 1.4,0.1 2.1,0.2 92.81,21.4 124.98,94.7 126.31,97.8 2.01,4.8 -0.19,10.2 -4.93,12.3 -4.72,2 -10.19,-0.2 -12.22,-5 -0.39,-0.9 -30.22,-67.8 -113.33,-86.9 -5.02,-1.1 -8.15,-6.1 -7,-11.2 0.99,-4.3 4.83,-7.2 9.07,-7.2"
         style="fill:#c16256;fill-opacity:1;fill-rule:nonzero;stroke:none"
         id="path156" /><path
         d="m 9943.02,12410.9 c 1.72,0 3.46,0.5 5.02,1.5 4.32,2.8 5.59,8.5 2.82,12.9 -1.77,2.7 -44.5,67.9 -140.09,79.9 -5.1,0.6 -9.76,-3 -10.4,-8.1 -0.64,-5.2 2.98,-9.8 8.09,-10.4 86.58,-10.9 126.32,-70.9 126.71,-71.5 1.78,-2.8 4.78,-4.3 7.85,-4.3"
         style="fill:#c16256;fill-opacity:1;fill-rule:nonzero;stroke:none"
         id="path158" /><path
         d="m 8610.66,9306.2 c 265.96,0.7 462.48,190 610.42,458.7 l -44.13,835.4 c 0,0 -257.23,-527.8 -403.46,-999.4 -39.51,-127.4 -98.17,-223 -162.83,-294.7"
         style="fill:#163356;fill-opacity:1;fill-rule:nonzero;stroke:none"
         id="path160" /><path
         d="m 10600,2556 16.7,8.7 c 0,-11.6 14.4,-52.2 26.1,-52.2 l 493.3,-10.1 c 11.7,0 18.9,21.9 18.9,33.6 l 42,12.1 c 0,73.8 -6.1,100.6 -38.7,157.8 -120,158.4 23.3,872.7 19.1,1058.5 29.6,50.9 -519.4,11 -527.1,23 -12.4,0 -22.1,-10.5 -21.1,-22.8 l 64.6,-814.6 c 23.3,-191.2 -93.3,-243.7 -93.8,-394"
         style="fill:#f99370;fill-opacity:1;fill-rule:nonzero;stroke:none"
         id="path162" /><path
         d="m 8461.64,2485.1 h 982.59 c 85.77,3.4 85.11,90.9 69.31,158.7 -54.11,244.5 41.53,806 59.25,1057.5 4.73,46 -31.41,86.1 -77.7,86.1 h -433.66 c -47,0 -83.36,-41.2 -77.51,-87.9 l 78.87,-628.8 c 30.25,-291 -270.75,-315.4 -468.81,-355.5 -77.73,-19.6 -159,-49.8 -196.86,-107.9 -35.35,-51.9 1.7,-122.2 64.52,-122.2"
         style="fill:#f99370;fill-opacity:1;fill-rule:nonzero;stroke:none"
         id="path164" /><path
         d="m 9550.95,2587 c -2.65,-48.2 -26.54,-103.2 -82.35,-102 0.01,0 -1019.21,0 -1019.21,0 -254.18,78 117.8,433.8 576.81,406.9 36.25,-8.7 205.84,-37.7 409.23,-9.5 114.1,11.7 119.73,-195.9 115.52,-295.4"
         style="fill:#103663;fill-opacity:1;fill-rule:nonzero;stroke:none"
         id="path166" /><path
         d="m 11118.9,2485 h -435.6 c -210.5,23.9 -63,404.1 217.7,406.9 282.2,2.8 428.1,-383.4 217.9,-406.9"
         style="fill:#103663;fill-opacity:1;fill-rule:nonzero;stroke:none"
         id="path168" /><path
         d="m 8692.37,2623 c -8.56,0 -16.67,5.1 -20.08,13.5 -39.58,97.6 -111.99,127.1 -112.71,127.4 -26.24,9.9 -10.14,51 15.88,40.3 3.67,-1.4 90.49,-36.8 136.97,-151.4 5.96,-13.9 -5.09,-30.1 -20.06,-29.8"
         style="fill:#e8c0a6;fill-opacity:1;fill-rule:nonzero;stroke:none"
         id="path170" /><path
         d="m 8860.65,2643.3 c -9.24,0 -17.8,6 -20.68,15.3 -34.65,111.9 -132.1,163.6 -133.08,164.1 -25.08,12.5 -4.8,51.8 19.97,38.4 4.65,-2.4 114.54,-60.7 154.48,-189.7 4.48,-13.7 -6.41,-28.3 -20.69,-28.1"
         style="fill:#e8c0a6;fill-opacity:1;fill-rule:nonzero;stroke:none"
         id="path172" /><path
         d="m 9052.17,2666.8 c -8.96,0 -17.35,5.6 -20.45,14.6 -40.44,116.2 -133.84,179.5 -134.77,180.1 -23.54,15.2 0.71,52 23.92,36.1 4.32,-2.8 106.36,-71.5 151.75,-202 5.07,-13.7 -5.89,-29 -20.45,-28.8"
         style="fill:#e8c0a6;fill-opacity:1;fill-rule:nonzero;stroke:none"
         id="path174" /><path
         d="m 11057.2,2762.4 c -165.9,93.4 -312.7,-29.2 -335.9,12.7 -19.5,43.9 197,109.6 346.9,27.7 19,-10.3 10.3,-41.2 -11,-40.4"
         style="fill:#e8c0a6;fill-opacity:1;fill-rule:nonzero;stroke:none"
         id="path176" /><path
         d="m 8378.07,2587 h 1172.88 c -4.32,-35.8 -14.21,-70.6 -32.16,-102 h -1069.4 c -52.67,0 -90.02,52.8 -71.32,102"
         style="fill:#0f2e54;fill-opacity:1;fill-rule:nonzero;stroke:none"
         id="path178" /><path
         d="m 11118.9,2485 h -435.6 c -55.5,0 -100.1,46.7 -96.7,102 h 628.9 c 3.3,-55.3 -41.2,-102 -96.6,-102"
         style="fill:#0f2e54;fill-opacity:1;fill-rule:nonzero;stroke:none"
         id="path180" /><path
         d="m 11246.1,3040.9 c 0,0 -464.6,-112.8 -703.9,8.4 -124.6,781.3 -470.4,2956.6 -590.88,4447.3 -4.61,-86.9 -257.67,-3592.4 -305.83,-4447.3 -165.26,-55.3 -497.54,-122 -683.5,12 -83.53,899.9 -351.75,3862.6 52.28,6282.3 0,0 1107.23,-123.2 1971.83,138.1 238,-767.6 301.1,-5519.7 260,-6440.8"
         style="fill:#3a72aa;fill-opacity:1;fill-rule:nonzero;stroke:none"
         id="path182" /><path
         d="m 9140.74,3136 c -224.73,2600.1 41.06,4812.4 107.6,4837.1 48.79,-11.2 -229.02,-2260.7 -107.6,-4837.1"
         style="fill:#23659b;fill-opacity:1;fill-rule:nonzero;stroke:none"
         id="path184" /><path
         d="m 10880.6,3136 c -155,2664.4 -546.1,5148.6 -499.9,5184.2 59.4,3.5 456.2,-2537.1 499.9,-5184.2"
         style="fill:#23659b;fill-opacity:1;fill-rule:nonzero;stroke:none"
         id="path186" /><path
         d="m 11147.2,8437 c -39.5,-48.1 -81.7,-96.3 -126.3,-144.7 0,0 -217.6,-40.9 -387.9,185.7 694.2,1501.4 -644.43,1583.5 -378.5,2919.6 896.2,-105.8 2142.8,-1443.3 892.7,-2960.6"
         style="fill:#1d3f70;fill-opacity:1;fill-rule:nonzero;stroke:none"
         id="path188" /><path
         d="m 11147.2,8437 c -39.5,-48.1 -81.7,-96.3 -126.3,-144.7 0,0 -217.6,-40.9 -387.9,185.7 20.3,72.3 50.6,115 71.9,175.4 0,0 129.7,-152.1 442.3,-216.4"
         style="fill:#163356;fill-opacity:1;fill-rule:nonzero;stroke:none"
         id="path190" /><path
         d="m 11036.5,8263.1 c -374.1,-22.6 -559,372.3 -407.8,279.8 3.8,-9.9 95.5,-237.2 440.3,-222.2 54.4,-10.8 31.9,-69.4 -32.5,-57.6"
         style="fill:#23659b;fill-opacity:1;fill-rule:nonzero;stroke:none"
         id="path192" /><path
         d="m 8853.28,8303.4 c 0,0 67.63,-290.1 608.82,-433.2 155.01,-41 244.59,-20.7 267.32,86.7 11.41,54 40.87,147.9 95.05,182.7 0,0 121.09,-52.3 166.78,-126.5 100.15,-162.6 251.15,-14.8 324.55,155.4 90.9,210.6 321.2,389 371.5,565.6 L 8853.28,8303.4"
         style="fill:#f4d4be;fill-opacity:1;fill-rule:nonzero;stroke:none"
         id="path194" /><path
         d="m 11058.6,8662 c -17.6,-31.2 -28.1,-26.2 -46.1,-8.2 -486.4,363.1 -660.3,-430.3 -1184.15,-444.4 -533.25,-52.8 -829.88,-82.9 -975.12,94 -253.58,393.1 149.74,2150 475.96,2575.5 142.9,221.2 363.68,436.8 500.2,551.6 -2.79,-11.5 -52.7,-314.7 415.21,-15.5 23.5,-9.9 181.8,-172.1 172.5,-249.5 23.7,-355.7 867.7,-2103.9 641.5,-2503.5"
         style="fill:#1d3f70;fill-opacity:1;fill-rule:nonzero;stroke:none"
         id="path196" /><path
         d="m 10777.2,8550.3 -106.6,22.1 c 426.2,959.4 -75,1365 -340.1,1905.5 614.8,-711.5 707.7,-1101.5 446.7,-1927.6"
         style="fill:#163356;fill-opacity:1;fill-rule:nonzero;stroke:none"
         id="path198" /><path
         d="m 10398.4,11371.9 c 2.6,-178.5 -455.34,-336.1 -481.29,-336.3 l -54.89,162.4 c -70.47,-17.4 -132.52,-116 -132.52,-116 -190.04,185.4 -98.86,296.8 -51.23,319.6 55.04,26.3 151.04,29.1 150.92,28.9 -2.82,-11.5 -10.24,-286.6 415.21,-15.5 54.7,25.4 153.8,-43.1 153.8,-43.1"
         style="fill:#f4d4be;fill-opacity:1;fill-rule:nonzero;stroke:none"
         id="path200" /><path
         d="m 9645.49,3049.3 c 0.43,0.8 -60.07,-22.3 -143.43,-38.1 0,0 233.44,3478.8 268.22,3943.1 34.77,464.2 181.04,542.3 181.04,542.3 0,0 -309.7,-4372.1 -305.83,-4447.3"
         style="fill:#23659b;fill-opacity:1;fill-rule:nonzero;stroke:none"
         id="path202" /><path
         d="m 9654.69,3218 c -6.25,-100.4 -9.66,-160.4 -9.2,-168.7 -165.26,-55.3 -497.54,-122 -683.5,12 0,0 -5.91,55.1 -15.57,156.7 0,0 325.72,-149.8 708.27,0"
         style="fill:#23659b;fill-opacity:1;fill-rule:nonzero;stroke:none"
         id="path204" /><path
         d="m 11246.1,3040.9 c 0,0 -464.6,-112.8 -703.9,8.4 0,0 -9.9,60.5 -27.2,168.7 0,0 327.3,-91.7 736.8,0 1.8,-105.5 -7.1,-168.3 -5.7,-177.1"
         style="fill:#23659b;fill-opacity:1;fill-rule:nonzero;stroke:none"
         id="path206" /><path
         d="m 8510.61,11302.9 c 1.88,-2.6 3.76,-5.2 5.82,-7.7 152.9,-196.5 402.43,-187.3 402.43,-187.3 5.65,48.4 8.9,91.7 8.9,126.5 -32.33,-1.7 -217.21,-8.7 -346,155.5 -5.13,-6.3 -31.81,-36.4 -71.15,-87"
         style="fill:#163356;fill-opacity:1;fill-rule:nonzero;stroke:none"
         id="path208" /></g></g></svg>
