<?xml version="1.0" standalone="no"?>
<!DOCTYPE svg PUBLIC "-//W3C//DTD SVG 20010904//EN"
 "http://www.w3.org/TR/2001/REC-SVG-20010904/DTD/svg10.dtd">
<svg version="1.0" xmlns="http://www.w3.org/2000/svg"
 width="200.000000pt" height="200.000000pt" viewBox="0 0 200.000000 200.000000"
 preserveAspectRatio="xMidYMid meet">

<g transform="translate(0.000000,200.000000) scale(0.100000,-0.100000)"
fill="currentColor" stroke="none">
<path d="M296 1354 c-12 -30 -7 -289 6 -302 7 -7 43 -12 90 -12 l78 0 0 -29
c0 -20 -6 -31 -17 -34 -10 -3 14 -5 52 -5 39 0 64 2 58 5 -7 2 -13 18 -13 33
l0 29 83 3 82 3 0 160 0 160 -206 3 c-182 2 -207 0 -213 -14z m412 -146 l-3
-153 -189 -3 c-130 -2 -193 1 -202 9 -11 9 -14 44 -14 149 0 75 3 140 7 143 3
4 96 7 205 7 l199 0 -3 -152z m-168 -198 c0 -27 -3 -30 -30 -30 -27 0 -30 3
-30 30 0 27 3 30 30 30 27 0 30 -3 30 -30z"/>
<path d="M525 1273 c-22 -54 -54 -156 -47 -148 12 13 64 157 59 162 -3 2 -8
-4 -12 -14z"/>
<path d="M393 1242 c-24 -15 -43 -30 -43 -34 0 -10 81 -61 86 -55 3 3 -11 15
-30 27 -20 12 -36 25 -36 29 0 4 16 16 35 27 19 10 35 22 35 26 0 11 0 11 -47
-20z"/>
<path d="M570 1266 c0 -3 19 -18 42 -32 l42 -27 -43 -25 c-23 -13 -40 -27 -37
-29 2 -3 25 7 51 22 32 19 43 31 36 39 -12 14 -91 59 -91 52z"/>
<path d="M1120 1059 c0 -4 8 -9 18 -11 16 -4 17 -19 12 -181 -5 -161 -7 -178
-25 -191 -18 -13 -5 -15 123 -18 l142 -3 -2 60 -1 60 -6 -50 -6 -50 -71 -3
-71 -3 -7 32 c-3 17 -6 56 -6 85 0 48 2 54 24 60 39 9 61 1 62 -24 1 -12 4
-25 8 -29 3 -3 6 24 6 60 0 40 -4 67 -10 67 -6 0 -9 -12 -8 -27 3 -27 1 -28
-44 -31 l-48 -3 0 95 0 96 80 -1 80 -1 0 -50 c0 -30 4 -47 10 -43 6 3 10 26
10 50 0 42 1 44 22 36 17 -6 30 -29 50 -87 15 -43 28 -85 28 -93 0 -11 27 -76
84 -206 l14 -30 19 45 c11 25 25 72 32 105 7 33 32 103 55 155 33 74 47 96 64
98 12 2 22 8 22 13 0 6 -25 8 -62 4 -67 -6 -90 -15 -40 -15 18 0 32 -4 32 -10
0 -5 -18 -54 -39 -107 -22 -54 -43 -115 -46 -135 -4 -21 -10 -38 -14 -38 -4 0
-13 24 -21 53 -7 28 -26 92 -42 140 -15 48 -28 92 -28 97 0 6 12 10 26 10 14
0 23 4 19 9 -3 5 -38 10 -78 11 -39 0 -138 2 -219 3 -82 1 -148 -1 -148 -4z
m78 -144 c0 -27 3 -92 7 -142 l8 -93 -26 0 -27 0 6 173 c3 94 8 179 11 187 8
20 22 -62 21 -125z m311 93 c36 -115 91 -309 91 -322 0 -52 -36 20 -97 199
-57 164 -55 155 -28 155 18 0 26 -8 34 -32z"/>
<path d="M763 1054 c-23 -10 -13 -21 14 -16 l26 5 -7 -124 c-4 -68 -9 -133
-11 -144 -2 -11 -4 -41 -4 -67 -1 -43 -3 -48 -23 -48 -22 -1 -22 -1 -4 -12 25
-14 163 -4 212 17 91 38 124 90 124 192 0 54 -41 135 -86 169 -35 27 -45 29
-133 31 -53 1 -102 0 -108 -3z m86 -129 c-1 -55 -4 -138 -7 -185 -6 -72 -10
-85 -26 -88 -18 -4 -18 2 -12 134 11 204 14 243 22 255 15 25 24 -20 23 -116z
m139 93 c71 -43 106 -180 67 -261 -24 -51 -106 -97 -172 -97 l-22 0 4 193 c2
105 4 194 4 195 2 10 90 -13 119 -30z"/>
<path d="M164 1028 c-3 -4 7 -8 21 -8 26 0 27 -1 21 -47 -3 -27 -11 -103 -18
-170 -8 -86 -16 -123 -24 -123 -7 0 -15 -4 -19 -9 -3 -6 23 -10 65 -9 38 0 70
4 70 9 0 5 -7 9 -15 9 -12 0 -15 14 -15 63 0 57 3 66 29 91 18 18 41 28 62 29
46 3 62 -29 54 -110 -7 -82 -12 -93 -42 -93 -13 0 -22 -3 -20 -7 3 -5 31 -6
62 -5 31 2 53 7 50 10 -6 7 -10 8 -36 11 -6 0 -8 10 -4 22 10 32 7 147 -5 169
-16 30 -80 27 -119 -6 l-31 -26 0 106 0 106 -40 -2 c-23 -1 -43 -5 -46 -10z
m71 -160 c-3 -197 -2 -188 -25 -188 -21 0 -21 -8 1 168 5 40 9 93 9 116 0 35
6 56 15 56 1 0 1 -69 0 -152z"/>
<path d="M1793 943 c-31 -12 -7 -57 25 -46 6 3 12 16 12 29 0 23 -11 28 -37
17z m27 -17 c0 -3 -4 -8 -10 -11 -5 -3 -10 -1 -10 4 0 6 5 11 10 11 6 0 10 -2
10 -4z"/>
<path d="M555 886 c-85 -37 -114 -144 -56 -200 41 -39 96 -45 140 -14 71 48
93 118 56 174 -27 41 -94 61 -140 40z m118 -35 c10 -10 21 -37 24 -59 5 -39 2
-45 -35 -82 -33 -33 -46 -40 -79 -40 -35 0 -40 3 -52 35 -13 38 -7 91 17 144
15 32 17 33 61 27 25 -3 54 -15 64 -25z m-161 -85 c-4 -62 -6 -68 -18 -51 -18
25 -18 59 2 96 8 17 17 29 18 27 2 -1 1 -34 -2 -72z"/>
<path d="M1750 870 c-12 -8 -10 -10 11 -10 26 0 27 -2 18 -37 -4 -21 -11 -59
-14 -85 -3 -26 -13 -55 -21 -63 -14 -13 -8 -15 50 -15 37 0 66 4 66 10 0 6 -7
10 -15 10 -11 0 -15 20 -17 98 l-3 97 -30 3 c-16 1 -37 -2 -45 -8z m65 -103
c-1 -89 -2 -92 -24 -95 -21 -3 -23 -1 -17 20 3 12 8 41 12 63 12 89 15 105 22
105 4 0 7 -42 7 -93z"/>
</g>
</svg>
